<svg width="15" height="15" viewBox="0 0 15 15" fill="none" xmlns="http://www.w3.org/2000/svg">
<g clip-path="url(#clip0_221_793)">
<path d="M13.9708 7.81666L11.0833 6.48749V2.67916C11.082 2.59926 11.0577 2.52143 11.0134 2.45494C10.9691 2.38845 10.9066 2.33611 10.8333 2.30416L7.70833 0.866657C7.65349 0.841273 7.59377 0.828125 7.53333 0.828125C7.4729 0.828125 7.41318 0.841273 7.35833 0.866657L4.23333 2.30416C4.16101 2.33763 4.0998 2.39114 4.05697 2.45834C4.01413 2.52555 3.99147 2.60363 3.99167 2.68332V6.49166L1.11667 7.81666C1.04434 7.85013 0.983134 7.90364 0.9403 7.97084C0.897466 8.03805 0.874804 8.11613 0.875001 8.19582V12.2708C0.874804 12.3505 0.897466 12.4286 0.9403 12.4958C0.983134 12.563 1.04434 12.6165 1.11667 12.65L4.24167 14.0875C4.29652 14.1129 4.35623 14.126 4.41667 14.126C4.47711 14.126 4.53682 14.1129 4.59167 14.0875L7.54167 12.7292L10.4917 14.0875C10.5465 14.1129 10.6062 14.126 10.6667 14.126C10.7271 14.126 10.7868 14.1129 10.8417 14.0875L13.9667 12.65C14.039 12.6165 14.1002 12.563 14.143 12.4958C14.1859 12.4286 14.2085 12.3505 14.2083 12.2708V8.19582C14.2089 8.11658 14.1869 8.03882 14.1448 7.97166C14.1027 7.9045 14.0424 7.85073 13.9708 7.81666ZM12.8 8.19582L10.6708 9.16666L8.54167 8.19582L10.6708 7.21666L12.8 8.19582ZM7.54167 1.69999L9.67083 2.67916L7.54167 3.65832L5.41667 2.67916L7.54167 1.69999ZM4.41667 7.21249L6.54583 8.19166L4.41667 9.16666L2.2875 8.19582L4.41667 7.21249ZM7.125 12L4.41667 13.25L1.70833 12V8.84582L4.24167 9.99999C4.29538 10.0241 4.35361 10.0366 4.4125 10.0366C4.47139 10.0366 4.52962 10.0241 4.58333 9.99999L7.11667 8.83332L7.125 12ZM4.83333 6.48749V3.33332L7.36667 4.49999C7.42152 4.52537 7.48123 4.53852 7.54167 4.53852C7.60211 4.53852 7.66182 4.52537 7.71667 4.49999L10.25 3.33332V6.49166L7.54167 7.74166L4.83333 6.48749ZM13.3792 12.0042L10.6708 13.2542L7.95833 12.0042V8.84166L10.4958 9.99999C10.549 10.0235 10.6065 10.0357 10.6646 10.0357C10.7227 10.0357 10.7802 10.0235 10.8333 9.99999L13.3667 8.83332L13.3792 12.0042Z" fill="#D8C298"/>
</g>
<defs>
<clipPath id="clip0_221_793">
<rect width="15" height="15" fill="white"/>
</clipPath>
</defs>
</svg>
