<svg width="15" height="15" viewBox="0 0 15 15" fill="none" xmlns="http://www.w3.org/2000/svg">
<g clip-path="url(#clip0_221_799)">
<path d="M13.125 5.38477V1.78125C13.1255 1.60896 13.092 1.43826 13.0264 1.27895C12.9608 1.11964 12.8644 0.974852 12.7427 0.852902C12.621 0.730952 12.4764 0.634239 12.3172 0.568316C12.158 0.502393 11.9874 0.468557 11.8151 0.468751H8.21363C7.97748 0.469237 7.75104 0.562821 7.58345 0.7292L0.383451 7.92715C0.137889 8.1735 0 8.50715 0 8.85498C0 9.20282 0.137889 9.53646 0.383451 9.78281L3.81119 13.2105C4.05745 13.4562 4.39106 13.5941 4.73887 13.5941C5.08668 13.5941 5.4203 13.4562 5.66656 13.2105L12.8645 6.01494C13.0309 5.84739 13.1245 5.62093 13.125 5.38477ZM10.3125 4.21875C10.127 4.21875 9.94578 4.16377 9.79161 4.06075C9.63744 3.95774 9.51727 3.81132 9.44632 3.64002C9.37536 3.46871 9.3568 3.28021 9.39297 3.09835C9.42914 2.9165 9.51843 2.74945 9.64954 2.61834C9.78065 2.48723 9.9477 2.39794 10.1296 2.36176C10.3114 2.32559 10.4999 2.34416 10.6712 2.41511C10.8425 2.48607 10.9889 2.60623 11.092 2.7604C11.195 2.91458 11.25 3.09583 11.25 3.28125C11.25 3.52989 11.1512 3.76835 10.9754 3.94416C10.7996 4.11998 10.5611 4.21875 10.3125 4.21875Z" fill="white"/>
<path d="M14.5312 1.875C14.4069 1.875 14.2876 1.92439 14.1997 2.01229C14.1118 2.1002 14.0624 2.21943 14.0624 2.34375V6.07529L6.40687 13.7312C6.36151 13.7742 6.32524 13.826 6.30019 13.8833C6.27514 13.9407 6.26183 14.0024 6.26102 14.065C6.26022 14.1275 6.27196 14.1896 6.29553 14.2476C6.3191 14.3055 6.35404 14.3582 6.39828 14.4024C6.44252 14.4467 6.49517 14.4816 6.55313 14.5052C6.61109 14.5288 6.67318 14.5405 6.73574 14.5397C6.7983 14.5389 6.86007 14.5256 6.9174 14.5005C6.97474 14.4755 7.02648 14.4392 7.06957 14.3938L14.7453 6.71807C14.827 6.63604 14.8916 6.53861 14.9353 6.43144C14.979 6.32427 15.0009 6.20949 14.9999 6.09375V2.34375C14.9999 2.21943 14.9506 2.1002 14.8626 2.01229C14.7747 1.92439 14.6555 1.875 14.5312 1.875Z" fill="white"/>
</g>
<defs>
<clipPath id="clip0_221_799">
<rect width="15" height="15" fill="white"/>
</clipPath>
</defs>
</svg>
