<svg width="15" height="15" viewBox="0 0 15 15" fill="none" xmlns="http://www.w3.org/2000/svg">
<path d="M12.5001 10.1126V4.88756C12.7998 4.78311 13.0682 4.60426 13.28 4.36776C13.4918 4.13126 13.64 3.84486 13.7109 3.5354C13.7817 3.22595 13.7729 2.90357 13.6851 2.59848C13.5973 2.2934 13.4335 2.0156 13.209 1.79112C12.9845 1.56664 12.7067 1.40283 12.4016 1.31505C12.0965 1.22727 11.7742 1.21838 11.4647 1.28924C11.1553 1.36009 10.8689 1.50835 10.6324 1.72013C10.3959 1.93191 10.217 2.20027 10.1126 2.50006H4.88756C4.78311 2.20027 4.60426 1.93191 4.36776 1.72013C4.13126 1.50835 3.84486 1.36009 3.5354 1.28924C3.22595 1.21838 2.90357 1.22727 2.59848 1.31505C2.2934 1.40283 2.0156 1.56664 1.79112 1.79112C1.56664 2.0156 1.40283 2.2934 1.31505 2.59848C1.22727 2.90357 1.21838 3.22595 1.28924 3.5354C1.36009 3.84486 1.50835 4.13126 1.72013 4.36776C1.93191 4.60426 2.20027 4.78311 2.50006 4.88756V10.1126C2.20027 10.217 1.93191 10.3959 1.72013 10.6324C1.50835 10.8689 1.36009 11.1553 1.28924 11.4647C1.21838 11.7742 1.22727 12.0965 1.31505 12.4016C1.40283 12.7067 1.56664 12.9845 1.79112 13.209C2.0156 13.4335 2.2934 13.5973 2.59848 13.6851C2.90357 13.7729 3.22595 13.7817 3.5354 13.7109C3.84486 13.64 4.13126 13.4918 4.36776 13.28C4.60426 13.0682 4.78311 12.7998 4.88756 12.5001H10.1126C10.217 12.7998 10.3959 13.0682 10.6324 13.28C10.8689 13.4918 11.1553 13.64 11.4647 13.7109C11.7742 13.7817 12.0965 13.7729 12.4016 13.6851C12.7067 13.5973 12.9845 13.4335 13.209 13.209C13.4335 12.9845 13.5973 12.7067 13.6851 12.4016C13.7729 12.0965 13.7817 11.7742 13.7109 11.4647C13.64 11.1553 13.4918 10.8689 13.28 10.6324C13.0682 10.3959 12.7998 10.217 12.5001 10.1126ZM11.8751 2.50006C11.9987 2.50006 12.1195 2.53671 12.2223 2.60539C12.3251 2.67407 12.4052 2.77168 12.4525 2.88588C12.4998 3.00009 12.5122 3.12575 12.488 3.24699C12.4639 3.36823 12.4044 3.47959 12.317 3.567C12.2296 3.65441 12.1182 3.71393 11.997 3.73805C11.8758 3.76217 11.7501 3.74979 11.6359 3.70248C11.5217 3.65518 11.4241 3.57507 11.3554 3.47229C11.2867 3.36951 11.2501 3.24867 11.2501 3.12506C11.2501 2.9593 11.3159 2.80033 11.4331 2.68312C11.5503 2.56591 11.7093 2.50006 11.8751 2.50006ZM3.12506 2.50006C3.24867 2.50006 3.36951 2.53671 3.47229 2.60539C3.57507 2.67407 3.65518 2.77168 3.70248 2.88588C3.74979 3.00009 3.76217 3.12575 3.73805 3.24699C3.71393 3.36823 3.65441 3.47959 3.567 3.567C3.47959 3.65441 3.36823 3.71393 3.24699 3.73805C3.12575 3.76217 3.00009 3.74979 2.88588 3.70248C2.77168 3.65518 2.67407 3.57507 2.60539 3.47229C2.53671 3.36951 2.50006 3.24867 2.50006 3.12506C2.50006 2.9593 2.56591 2.80033 2.68312 2.68312C2.80033 2.56591 2.9593 2.50006 3.12506 2.50006ZM3.12506 12.5001C3.00145 12.5001 2.88061 12.4634 2.77783 12.3947C2.67505 12.3261 2.59494 12.2284 2.54763 12.1142C2.50033 12 2.48795 11.8744 2.51207 11.7531C2.53618 11.6319 2.59571 11.5205 2.68312 11.4331C2.77052 11.3457 2.88189 11.2862 3.00313 11.2621C3.12437 11.238 3.25003 11.2503 3.36424 11.2976C3.47844 11.3449 3.57605 11.425 3.64473 11.5278C3.7134 11.6306 3.75006 11.7514 3.75006 11.8751C3.75006 12.0408 3.68421 12.1998 3.567 12.317C3.44979 12.4342 3.29082 12.5001 3.12506 12.5001ZM10.1126 11.2501H4.88756C4.79423 10.9879 4.64374 10.7499 4.447 10.5531C4.25025 10.3564 4.01218 10.2059 3.75006 10.1126V4.88756C4.01218 4.79423 4.25025 4.64374 4.447 4.447C4.64374 4.25025 4.79423 4.01218 4.88756 3.75006H10.1126C10.2059 4.01218 10.3564 4.25025 10.5531 4.447C10.7499 4.64374 10.9879 4.79423 11.2501 4.88756V10.1126C10.9879 10.2059 10.7499 10.3564 10.5531 10.5531C10.3564 10.7499 10.2059 10.9879 10.1126 11.2501ZM11.8751 12.5001C11.7514 12.5001 11.6306 12.4634 11.5278 12.3947C11.425 12.3261 11.3449 12.2284 11.2976 12.1142C11.2503 12 11.238 11.8744 11.2621 11.7531C11.2862 11.6319 11.3457 11.5205 11.4331 11.4331C11.5205 11.3457 11.6319 11.2862 11.7531 11.2621C11.8744 11.238 12 11.2503 12.1142 11.2976C12.2284 11.3449 12.3261 11.425 12.3947 11.5278C12.4634 11.6306 12.5001 11.7514 12.5001 11.8751C12.5001 12.0408 12.4342 12.1998 12.317 12.317C12.1998 12.4342 12.0408 12.5001 11.8751 12.5001Z" fill="#D8C298"/>
</svg>
