<svg width="15" height="15" viewBox="0 0 15 15" fill="none" xmlns="http://www.w3.org/2000/svg">
<path d="M7.85311 3.99903H7.14852C7.08407 3.99903 7.03133 4.05176 7.03133 4.11621V8.14893C7.03133 8.18701 7.04891 8.22217 7.07967 8.24414L9.50106 10.0122C9.55379 10.0503 9.62703 10.04 9.66512 9.98731L10.0841 9.41602C10.1236 9.36182 10.1119 9.28858 10.0592 9.25196L7.9703 7.7417V4.11621C7.9703 4.05176 7.91756 3.99903 7.85311 3.99903ZM11.0728 5.10059L13.3697 5.66162C13.443 5.6792 13.5147 5.62354 13.5147 5.54883L13.5264 3.18311C13.5264 3.08496 13.4137 3.0293 13.3375 3.09082L11.0289 4.89404C11.0114 4.90754 10.9982 4.92569 10.9906 4.9464C10.983 4.96711 10.9814 4.98955 10.986 5.01112C10.9906 5.0327 11.0012 5.05254 11.0165 5.06837C11.0319 5.08419 11.0514 5.09536 11.0728 5.10059ZM13.5294 9.51123L12.6988 9.22559C12.6699 9.21566 12.6382 9.21746 12.6105 9.2306C12.5829 9.24374 12.5615 9.26718 12.5509 9.2959C12.523 9.37061 12.4937 9.44385 12.463 9.51709C12.2022 10.1338 11.8287 10.689 11.3512 11.165C10.8789 11.6387 10.3193 12.0163 9.70321 12.2769C9.06501 12.5467 8.379 12.6852 7.68612 12.6841C6.98592 12.6841 6.3077 12.5479 5.66903 12.2769C5.05297 12.0163 4.49331 11.6387 4.02108 11.165C3.545 10.689 3.17147 10.1338 2.90926 9.51709C2.64093 8.87854 2.50345 8.19264 2.50496 7.5C2.50496 6.79981 2.64119 6.12012 2.91219 5.48145C3.17293 4.86475 3.54647 4.30957 4.02401 3.8335C4.49624 3.3598 5.0559 2.98221 5.67196 2.72168C6.3077 2.45069 6.98739 2.31445 7.68758 2.31445C8.38778 2.31445 9.066 2.45069 9.70467 2.72168C10.3207 2.98221 10.8804 3.3598 11.3526 3.8335C11.502 3.98438 11.6427 4.14111 11.7716 4.30664L12.6475 3.6211C11.4947 2.14746 9.70028 1.19971 7.68465 1.20117C4.17489 1.20264 1.35653 4.05322 1.39168 7.56446C1.42684 11.0142 4.23201 13.7988 7.68758 13.7988C10.4049 13.7988 12.7193 12.0762 13.6012 9.66358C13.6231 9.60205 13.5909 9.53321 13.5294 9.51123Z" fill="#D8C298"/>
</svg>
