<svg width="16" height="16" viewBox="0 0 16 16" fill="none" xmlns="http://www.w3.org/2000/svg">
<g opacity="0.5">
<path d="M13.4446 1.66406H11.8472C11.37 1.66406 10.9819 2.05209 10.9819 2.52931V4.12668C10.9819 4.6039 11.37 4.99192 11.8472 4.99192H13.4446C13.9218 4.99192 14.3098 4.6039 14.3098 4.12668V2.52931C14.3098 2.05209 13.9218 1.66406 13.4446 1.66406ZM13.6442 4.12668C13.6442 4.23683 13.5547 4.32635 13.4446 4.32635H11.8472C11.737 4.32635 11.6475 4.23683 11.6475 4.12668V2.52931C11.6475 2.41915 11.737 2.32963 11.8472 2.32963H13.4446C13.5547 2.32963 13.6442 2.41915 13.6442 2.52931V4.12668Z" fill="#EAEAEA"/>
<path d="M12.5793 0H3.39442C1.52283 0 0 1.52716 0 3.40474V5.65736V6.32294V12.2365C0 14.1138 1.52283 15.641 3.39442 15.641H12.5793C14.4509 15.641 15.9737 14.1138 15.9737 12.2365V6.32294V5.65736V3.40474C15.9737 1.52716 14.4509 0 12.5793 0ZM15.3082 12.2365C15.3082 13.7467 14.0838 14.9754 12.5793 14.9754H3.39442C1.88956 14.9754 0.665572 13.7467 0.665572 12.2365V6.32294H4.73255C3.86698 7.16921 3.32786 8.34761 3.32786 9.6508C3.32786 12.2199 5.41776 14.3098 7.98687 14.3098C10.556 14.3098 12.6459 12.2199 12.6459 9.6508C12.6459 8.34761 12.1068 7.16921 11.2412 6.32294H15.3082V12.2365ZM11.9803 9.6508C11.9803 11.8528 10.1889 13.6442 7.98687 13.6442C5.78482 13.6442 3.99343 11.8528 3.99343 9.6508C3.99343 7.44875 5.78482 5.65736 7.98687 5.65736C10.1889 5.65736 11.9803 7.44875 11.9803 9.6508ZM10.3743 5.65736C9.67509 5.23772 8.8601 4.99179 7.98687 4.99179C7.11364 4.99179 6.29864 5.23772 5.59946 5.65736H0.665572V3.40474C0.665572 1.89422 1.88989 0.665572 3.39442 0.665572H12.5793C14.0838 0.665572 15.3082 1.89422 15.3082 3.40474V5.65736H10.3743Z" fill="#EAEAEA"/>
<path d="M4.99179 9.65035C4.99179 11.3016 6.33525 12.6454 7.98687 12.6454C9.63848 12.6454 10.9819 11.3016 10.9819 9.65035C10.9819 7.99906 9.63848 6.65527 7.98687 6.65527C6.33525 6.65527 4.99179 7.99906 4.99179 9.65035ZM10.3164 9.65035C10.3164 10.9349 9.27109 11.9799 7.98687 11.9799C6.70264 11.9799 5.65736 10.9349 5.65736 9.65035C5.65736 8.36579 6.70264 7.32085 7.98687 7.32085C9.27109 7.32085 10.3164 8.36579 10.3164 9.65035Z" fill="#EAEAEA"/>
</g>
</svg>
