<svg width="20" height="16" viewBox="0 0 20 16" fill="none" xmlns="http://www.w3.org/2000/svg">
<path opacity="0.5" d="M18.0925 0.348634L18.0995 0.345939L18.1064 0.342852C18.4008 0.210508 18.6406 0.262649 18.7798 0.396378C18.922 0.532942 19.0355 0.828045 18.9083 1.33481L18.9081 1.33477L18.9061 1.34403L16.1526 14.2385L16.1524 14.2394C16.0637 14.6619 15.9076 14.844 15.7614 14.9094C15.6153 14.9748 15.3823 14.9671 15.0345 14.7801L10.8545 11.7123L10.6735 11.5794L10.512 11.7354L8.49612 13.6832L8.4954 13.6839L8.48292 13.6959C8.36516 13.8088 8.28632 13.8845 8.19365 13.9395C8.17326 13.9516 8.1518 13.9628 8.12871 13.9729L8.38518 10.165L16.0856 3.25957C16.0859 3.25932 16.0862 3.25906 16.0865 3.25881C16.1864 3.17047 16.2946 3.0414 16.3008 2.87726C16.3043 2.78534 16.2741 2.69791 16.2154 2.62843C16.1604 2.56325 16.0909 2.52604 16.0296 2.50514C15.9101 2.46435 15.7743 2.46855 15.6498 2.49418C15.5203 2.52086 15.3809 2.57508 15.2436 2.65808L15.2436 2.65805L15.24 2.66034L5.73755 8.61762L1.70251 7.36689L1.70133 7.36653C1.50004 7.30516 1.37385 7.23172 1.30497 7.167C1.24066 7.10657 1.23845 7.06788 1.24042 7.04839C1.24343 7.01871 1.26663 6.94928 1.37885 6.85069C1.48901 6.7539 1.66545 6.64716 1.92316 6.54415C1.92372 6.54393 1.92429 6.5437 1.92485 6.54348L18.0925 0.348634Z" stroke="#EAEAEA" stroke-width="0.532458"/>
</svg>
