<svg width="24" height="17" viewBox="0 0 24 17" fill="none" xmlns="http://www.w3.org/2000/svg">
<g opacity="0.5">
<path d="M4.99606 0.228196H18.4138C20.9203 0.228196 22.9522 2.26011 22.9522 4.76662V11.4741C22.9522 13.9806 20.9203 16.0125 18.4138 16.0125H4.99606C2.48955 16.0125 0.457635 13.9806 0.457635 11.4741V4.76662C0.457635 2.26011 2.48955 0.228196 4.99606 0.228196ZM9.01247 11.6459L15.2883 8.65266C15.2884 8.65265 15.2884 8.65265 15.2884 8.65264C15.6481 8.48108 15.6543 7.97113 15.2987 7.79097L9.02283 4.61067C8.70344 4.44879 8.32565 4.68088 8.32565 5.03894V11.2125C8.32565 11.5655 8.69376 11.7979 9.01247 11.6459Z" stroke="#EAEAEA" stroke-width="0.456392"/>
</g>
</svg>
